<?xml version="1.0" encoding="UTF-8" standalone="no"?>
<!-- Created with Inkscape (http://www.inkscape.org/) -->

<svg
   version="1.1"
   id="svg824"
   xml:space="preserve"
   width="375"
   height="665"
   viewBox="0 0 375 664.99997"
   sodipodi:docname="FundoRenan.svg"
   inkscape:version="1.1.1 (3bf5ae0d25, 2021-09-20)"
   xmlns:inkscape="http://www.inkscape.org/namespaces/inkscape"
   xmlns:sodipodi="http://sodipodi.sourceforge.net/DTD/sodipodi-0.dtd"
   xmlns="http://www.w3.org/2000/svg"
   xmlns:svg="http://www.w3.org/2000/svg"><defs
     id="defs828"><linearGradient
       id="linearGradient11700"
       inkscape:swatch="solid"><stop
         style="stop-color:#ffffff;stop-opacity:1;"
         offset="0"
         id="stop11698" /></linearGradient><linearGradient
       id="linearGradient6460"
       inkscape:swatch="gradient"><stop
         style="stop-color:#42ceb2;stop-opacity:1;"
         offset="0"
         id="stop6456" /><stop
         style="stop-color:#42ceb2;stop-opacity:0;"
         offset="1"
         id="stop6458" /></linearGradient><clipPath
       clipPathUnits="userSpaceOnUse"
       id="clipPath840"><path
         d="M 0,0 H 257.953 V 152.504 H 0 Z"
         id="path838" /></clipPath><clipPath
       clipPathUnits="userSpaceOnUse"
       id="clipPath11390"><g
         inkscape:label="Clip"
         id="use11392"><g
           id="g11526"
           transform="matrix(0.56710025,0,0,0.52198653,2.4353,78.183024)"
           style="fill:#42ceb2;fill-opacity:0.708333"><g
             id="g11524"
             clip-path="url(#clipPath840)"
             style="fill:#42ceb2;fill-opacity:0.708333"><g
               id="g11474"
               transform="translate(102.9961,89.6294)"
               style="fill:#42ceb2;fill-opacity:0.708333"><path
                 d="M 0,0 C 0.581,0 1.078,0.204 1.492,0.612 1.906,1.02 2.113,1.507 2.113,2.076 2.113,2.719 1.912,3.204 1.511,3.531 1.109,3.858 0.562,4.022 -0.13,4.022 H -2.243 V 0 Z M -4.227,-6.822 V 5.116 c 0,0.21 0.05,0.364 0.149,0.464 0.099,0.098 0.253,0.148 0.464,0.148 h 3.262 C 1.155,5.728 2.283,5.456 3.031,4.912 3.778,4.368 4.152,3.528 4.152,2.391 4.152,1.637 3.961,1.001 3.578,0.482 3.194,-0.037 2.67,-0.426 2.002,-0.686 V -0.76 C 2.323,-0.871 2.607,-1.106 2.854,-1.464 3.102,-1.823 3.343,-2.305 3.578,-2.91 l 1.501,-3.763 c 0.05,-0.174 0.074,-0.272 0.074,-0.297 0,-0.21 -0.296,-0.315 -0.889,-0.315 H 3.911 c -0.21,0 -0.389,0.028 -0.537,0.083 -0.148,0.056 -0.247,0.133 -0.297,0.232 L 1.65,-3.337 c -0.248,0.618 -0.55,1.041 -0.908,1.27 -0.359,0.229 -0.89,0.343 -1.595,0.343 h -1.39 v -5.098 c 0,-0.309 -0.284,-0.463 -0.853,-0.463 h -0.277 c -0.569,0 -0.854,0.154 -0.854,0.463"
                 style="fill:#42ceb2;fill-opacity:0.708333;fill-rule:nonzero;stroke:none"
                 id="path11472" /></g><g
               id="g11478"
               transform="translate(115.5898,87.998)"
               style="fill:#42ceb2;fill-opacity:0.708333"><path
                 d="M 0,0 C 0,0.853 -0.164,1.504 -0.491,1.956 -0.819,2.407 -1.311,2.632 -1.965,2.632 -3.361,2.632 -4.141,1.755 -4.301,0 Z m -6.303,-0.834 c 0,1.668 0.377,2.925 1.131,3.772 0.754,0.847 1.835,1.27 3.244,1.27 1.298,0 2.268,-0.42 2.91,-1.261 0.643,-0.84 0.964,-2.032 0.964,-3.577 0,-0.124 -0.09,-0.297 -0.268,-0.519 -0.18,-0.223 -0.324,-0.334 -0.436,-0.334 h -5.543 c 0.074,-0.939 0.327,-1.622 0.76,-2.048 0.433,-0.427 1.063,-0.64 1.892,-0.64 0.468,0 0.879,0.056 1.232,0.167 0.353,0.111 0.654,0.232 0.908,0.361 0.253,0.13 0.399,0.195 0.436,0.195 0.135,0 0.293,-0.142 0.472,-0.426 0.179,-0.285 0.269,-0.495 0.269,-0.63 0,-0.198 -0.164,-0.393 -0.491,-0.584 -0.327,-0.192 -0.75,-0.349 -1.27,-0.473 -0.518,-0.124 -1.044,-0.186 -1.575,-0.186 -3.09,0 -4.635,1.638 -4.635,4.913"
                 style="fill:#42ceb2;fill-opacity:0.708333;fill-rule:nonzero;stroke:none"
                 id="path11476" /></g><g
               id="g11482"
               transform="translate(119.7275,82.8076)"
               style="fill:#42ceb2;fill-opacity:0.708333"><path
                 d="m 0,0 v 6.321 c 0,0.816 -0.037,1.409 -0.111,1.78 -0.075,0.371 -0.112,0.581 -0.112,0.63 0,0.173 0.155,0.297 0.463,0.371 0.31,0.074 0.594,0.111 0.854,0.111 0.184,0 0.317,-0.087 0.398,-0.259 C 1.572,8.78 1.634,8.595 1.677,8.397 1.721,8.2 1.748,8.063 1.761,7.99 2.131,8.422 2.57,8.765 3.077,9.019 3.583,9.271 4.097,9.398 4.615,9.398 5.555,9.398 6.28,9.136 6.793,8.61 7.306,8.085 7.562,7.347 7.562,6.396 V 0 c 0,-0.309 -0.284,-0.463 -0.852,-0.463 H 6.506 C 5.937,-0.463 5.653,-0.309 5.653,0 V 6.173 C 5.653,6.68 5.511,7.072 5.227,7.35 4.942,7.628 4.528,7.767 3.985,7.767 3.59,7.767 3.206,7.653 2.836,7.424 2.465,7.195 2.156,6.902 1.909,6.543 V 0 c 0,-0.309 -0.285,-0.463 -0.852,-0.463 H 0.853 C 0.284,-0.463 0,-0.309 0,0"
                 style="fill:#42ceb2;fill-opacity:0.708333;fill-rule:nonzero;stroke:none"
                 id="path11480" /></g><g
               id="g11486"
               transform="translate(134.1396,84.1792)"
               style="fill:#42ceb2;fill-opacity:0.708333"><path
                 d="m 0,0 c 0.408,0.223 0.785,0.525 1.131,0.909 v 1.853 c -1.198,0 -2.156,-0.114 -2.873,-0.343 -0.717,-0.229 -1.075,-0.707 -1.075,-1.436 0,-0.421 0.121,-0.745 0.361,-0.974 0.241,-0.228 0.584,-0.342 1.029,-0.342 0.544,0 1.02,0.111 1.427,0.333 m -3.967,-1.214 c -0.544,0.476 -0.815,1.159 -0.815,2.048 0,1.249 0.519,2.123 1.557,2.624 1.037,0.5 2.49,0.756 4.356,0.769 V 5.024 C 1.131,5.456 0.983,5.802 0.687,6.062 0.39,6.321 -0.086,6.451 -0.741,6.451 -1.248,6.451 -1.689,6.393 -2.066,6.275 -2.443,6.157 -2.765,6.034 -3.03,5.904 -3.296,5.774 -3.447,5.709 -3.484,5.709 c -0.137,0 -0.294,0.146 -0.473,0.437 -0.18,0.29 -0.269,0.509 -0.269,0.657 0,0.173 0.164,0.355 0.492,0.547 0.327,0.192 0.759,0.352 1.296,0.482 0.539,0.13 1.11,0.195 1.715,0.195 1.224,0 2.154,-0.263 2.79,-0.788 C 2.704,6.713 3.021,5.988 3.021,5.061 V 1.094 c 0,-0.828 0.039,-1.427 0.112,-1.798 0.074,-0.371 0.111,-0.581 0.111,-0.63 0,-0.174 -0.151,-0.297 -0.454,-0.371 C 2.487,-1.779 2.206,-1.816 1.947,-1.816 1.749,-1.816 1.61,-1.724 1.53,-1.539 1.449,-1.353 1.388,-1.155 1.345,-0.945 1.301,-0.735 1.272,-0.593 1.261,-0.519 0.928,-0.915 0.51,-1.248 0.01,-1.52 c -0.501,-0.272 -1.084,-0.408 -1.752,-0.408 -0.94,0 -1.681,0.238 -2.225,0.714"
                 style="fill:#42ceb2;fill-opacity:0.708333;fill-rule:nonzero;stroke:none"
                 id="path11484" /></g><g
               id="g11490"
               transform="translate(139.9111,82.8076)"
               style="fill:#42ceb2;fill-opacity:0.708333"><path
                 d="m 0,0 v 6.321 c 0,0.816 -0.037,1.409 -0.111,1.78 -0.076,0.371 -0.112,0.581 -0.112,0.63 0,0.173 0.155,0.297 0.463,0.371 0.31,0.074 0.594,0.111 0.854,0.111 0.184,0 0.317,-0.087 0.398,-0.259 C 1.572,8.78 1.634,8.595 1.677,8.397 1.721,8.2 1.748,8.063 1.761,7.99 2.131,8.422 2.57,8.765 3.077,9.019 3.583,9.271 4.097,9.398 4.615,9.398 5.555,9.398 6.28,9.136 6.793,8.61 7.306,8.085 7.562,7.347 7.562,6.396 V 0 c 0,-0.309 -0.284,-0.463 -0.852,-0.463 H 6.506 C 5.937,-0.463 5.653,-0.309 5.653,0 V 6.173 C 5.653,6.68 5.511,7.072 5.227,7.35 4.942,7.628 4.528,7.767 3.985,7.767 3.59,7.767 3.206,7.653 2.836,7.424 2.465,7.195 2.156,6.902 1.909,6.543 V 0 c 0,-0.309 -0.285,-0.463 -0.852,-0.463 H 0.853 C 0.284,-0.463 0,-0.309 0,0"
                 style="fill:#42ceb2;fill-opacity:0.708333;fill-rule:nonzero;stroke:none"
                 id="path11488" /></g><g
               id="g11494"
               transform="translate(157.335,82.8076)"
               style="fill:#42ceb2;fill-opacity:0.708333"><path
                 d="m 0,0 v 10.844 h -3.393 c -0.148,0 -0.253,0.052 -0.314,0.158 -0.063,0.104 -0.093,0.275 -0.093,0.51 v 0.37 c 0,0.235 0.03,0.405 0.093,0.51 0.061,0.105 0.166,0.158 0.314,0.158 h 8.732 c 0.148,0 0.253,-0.053 0.314,-0.158 0.063,-0.105 0.093,-0.275 0.093,-0.51 v -0.37 c 0,-0.235 -0.03,-0.406 -0.093,-0.51 C 5.592,10.896 5.487,10.844 5.339,10.844 H 1.983 V 0 c 0,-0.309 -0.284,-0.463 -0.852,-0.463 H 0.854 C 0.284,-0.463 0,-0.309 0,0"
                 style="fill:#42ceb2;fill-opacity:0.708333;fill-rule:nonzero;stroke:none"
                 id="path11492" /></g><g
               id="g11498"
               transform="translate(169.1064,84.6616)"
               style="fill:#42ceb2;fill-opacity:0.708333"><path
                 d="M 0,0 C 0.389,0.556 0.584,1.409 0.584,2.558 0.584,3.707 0.389,4.563 0,5.125 -0.39,5.687 -0.992,5.969 -1.808,5.969 -2.611,5.969 -3.204,5.687 -3.587,5.125 -3.971,4.563 -4.162,3.707 -4.162,2.558 -4.162,1.409 -3.974,0.556 -3.597,0 -3.22,-0.556 -2.623,-0.834 -1.808,-0.834 -0.992,-0.834 -0.39,-0.556 0,0 m -5.015,-1.14 c -0.741,0.846 -1.112,2.073 -1.112,3.68 0,1.606 0.377,2.842 1.131,3.707 0.754,0.865 1.829,1.297 3.225,1.297 1.397,0 2.462,-0.429 3.198,-1.288 C 2.162,5.397 2.53,4.158 2.53,2.54 c 0,-1.607 -0.365,-2.834 -1.093,-3.68 -0.73,-0.847 -1.799,-1.27 -3.208,-1.27 -1.421,0 -2.502,0.423 -3.244,1.27"
                 style="fill:#42ceb2;fill-opacity:0.708333;fill-rule:nonzero;stroke:none"
                 id="path11496" /></g><g
               id="g11502"
               transform="translate(173.9531,82.8076)"
               style="fill:#42ceb2;fill-opacity:0.708333"><path
                 d="m 0,0 v 6.321 c 0,0.816 -0.037,1.409 -0.111,1.78 -0.075,0.371 -0.112,0.581 -0.112,0.63 0,0.173 0.155,0.297 0.463,0.371 0.309,0.074 0.594,0.111 0.853,0.111 0.185,0 0.318,-0.087 0.399,-0.259 C 1.572,8.78 1.634,8.595 1.677,8.397 1.721,8.2 1.748,8.063 1.761,7.99 2.391,8.929 3.096,9.398 3.874,9.398 4.232,9.398 4.501,9.318 4.68,9.157 4.859,8.997 4.949,8.805 4.949,8.583 4.949,8.36 4.905,8.113 4.819,7.841 4.732,7.569 4.634,7.434 4.521,7.434 4.448,7.434 4.321,7.464 4.143,7.526 3.963,7.588 3.763,7.619 3.54,7.619 3.157,7.619 2.82,7.492 2.53,7.239 2.239,6.985 2.026,6.753 1.891,6.543 V 0 c 0,-0.309 -0.279,-0.463 -0.835,-0.463 H 0.853 C 0.283,-0.463 0,-0.309 0,0"
                 style="fill:#42ceb2;fill-opacity:0.708333;fill-rule:nonzero;stroke:none"
                 id="path11500" /></g><g
               id="g11506"
               transform="translate(180.834,82.8076)"
               style="fill:#42ceb2;fill-opacity:0.708333"><path
                 d="m 0,0 v 6.321 c 0,0.816 -0.037,1.409 -0.111,1.78 -0.075,0.371 -0.112,0.581 -0.112,0.63 0,0.173 0.155,0.297 0.463,0.371 0.309,0.074 0.594,0.111 0.853,0.111 0.185,0 0.318,-0.087 0.399,-0.259 C 1.572,8.78 1.634,8.595 1.677,8.397 1.721,8.2 1.748,8.063 1.761,7.99 2.391,8.929 3.096,9.398 3.874,9.398 4.232,9.398 4.501,9.318 4.68,9.157 4.859,8.997 4.949,8.805 4.949,8.583 4.949,8.36 4.905,8.113 4.819,7.841 4.732,7.569 4.634,7.434 4.522,7.434 4.448,7.434 4.321,7.464 4.143,7.526 3.963,7.588 3.763,7.619 3.54,7.619 3.157,7.619 2.82,7.492 2.53,7.239 2.239,6.985 2.026,6.753 1.891,6.543 V 0 c 0,-0.309 -0.279,-0.463 -0.835,-0.463 H 0.853 C 0.283,-0.463 0,-0.309 0,0"
                 style="fill:#42ceb2;fill-opacity:0.708333;fill-rule:nonzero;stroke:none"
                 id="path11504" /></g><g
               id="g11510"
               transform="translate(193.2373,87.998)"
               style="fill:#42ceb2;fill-opacity:0.708333"><path
                 d="M 0,0 C 0,0.853 -0.164,1.504 -0.491,1.956 -0.819,2.407 -1.311,2.632 -1.965,2.632 -3.361,2.632 -4.141,1.755 -4.301,0 Z m -6.303,-0.834 c 0,1.668 0.377,2.925 1.131,3.772 0.754,0.847 1.835,1.27 3.244,1.27 1.298,0 2.268,-0.42 2.91,-1.261 0.643,-0.84 0.964,-2.032 0.964,-3.577 0,-0.124 -0.09,-0.297 -0.268,-0.519 -0.18,-0.223 -0.324,-0.334 -0.436,-0.334 h -5.543 c 0.074,-0.939 0.327,-1.622 0.76,-2.048 0.433,-0.427 1.063,-0.64 1.892,-0.64 0.468,0 0.879,0.056 1.232,0.167 0.353,0.111 0.654,0.232 0.908,0.361 0.253,0.13 0.399,0.195 0.436,0.195 0.135,0 0.293,-0.142 0.472,-0.426 0.179,-0.285 0.269,-0.495 0.269,-0.63 0,-0.198 -0.164,-0.393 -0.491,-0.584 -0.327,-0.192 -0.75,-0.349 -1.27,-0.473 -0.518,-0.124 -1.044,-0.186 -1.575,-0.186 -3.09,0 -4.635,1.638 -4.635,4.913"
                 style="fill:#42ceb2;fill-opacity:0.708333;fill-rule:nonzero;stroke:none"
                 id="path11508" /></g><g
               id="g11514"
               transform="translate(198.1875,82.3999)"
               style="fill:#42ceb2;fill-opacity:0.708333"><path
                 d="m 0,0 c -0.457,0.124 -0.825,0.278 -1.104,0.463 -0.277,0.186 -0.417,0.371 -0.417,0.557 0,0.16 0.09,0.379 0.27,0.658 0.179,0.278 0.336,0.417 0.473,0.417 0.024,0 0.148,-0.065 0.37,-0.195 C -0.186,1.771 0.067,1.656 0.353,1.557 0.637,1.458 0.957,1.409 1.316,1.409 c 1.076,0 1.613,0.432 1.613,1.298 0,0.382 -0.136,0.682 -0.408,0.898 -0.272,0.216 -0.729,0.43 -1.372,0.64 -0.865,0.259 -1.489,0.603 -1.872,1.029 -0.383,0.426 -0.575,1.01 -0.575,1.751 0,0.829 0.29,1.499 0.871,2.012 0.581,0.512 1.341,0.769 2.281,0.769 0.642,0 1.229,-0.083 1.76,-0.25 C 4.146,9.389 4.412,9.182 4.412,8.935 4.412,8.75 4.334,8.515 4.18,8.23 4.025,7.946 3.88,7.804 3.744,7.804 3.695,7.816 3.528,7.894 3.244,8.036 2.959,8.178 2.576,8.249 2.095,8.249 1.662,8.249 1.31,8.159 1.038,7.98 0.766,7.801 0.63,7.551 0.63,7.229 0.63,6.846 0.763,6.541 1.028,6.312 1.294,6.083 1.705,5.87 2.262,5.672 2.916,5.45 3.426,5.221 3.791,4.986 4.155,4.751 4.421,4.461 4.588,4.115 4.755,3.769 4.838,3.33 4.838,2.799 4.838,2.23 4.692,1.718 4.402,1.261 4.112,0.803 3.71,0.448 3.197,0.195 2.685,-0.059 2.106,-0.186 1.464,-0.186 0.945,-0.186 0.457,-0.124 0,0"
                 style="fill:#42ceb2;fill-opacity:0.708333;fill-rule:nonzero;stroke:none"
                 id="path11512" /></g><g
               id="g11518"
               transform="translate(110.936,129.5703)"
               style="fill:#42ceb2;fill-opacity:0.708333"><path
                 d="m 0,0 -26.283,-31.58 c -0.213,-0.256 -0.534,-0.397 -0.867,-0.378 l -41.027,2.204 c -1.111,0.06 -1.385,1.575 -0.365,2.021 L -1.233,1.642 C -0.213,2.087 0.711,0.855 0,0 m 6.169,-101.192 -28.71,65.784 c -0.159,0.366 -0.099,0.79 0.157,1.096 L 6.794,0.749 C 7.427,1.51 8.665,1.059 8.66,0.069 L 8.191,-100.774 c -0.005,-1.142 -1.566,-1.463 -2.022,-0.418 m -6.028,-3.096 -74.258,68.231 c -0.729,0.67 -0.218,1.884 0.77,1.831 l 45.549,-2.448 c 0.399,-0.021 0.751,-0.266 0.91,-0.632 l 28.71,-65.783 c 0.456,-1.046 -0.841,-1.971 -1.681,-1.199 m 10.357,-10.34 0.571,122.61 c 0.004,0.763 -0.778,1.277 -1.477,0.972 l -90.857,-39.652 c -0.698,-0.305 -0.853,-1.228 -0.292,-1.744 l 90.286,-82.957 c 0.675,-0.621 1.765,-0.145 1.769,0.771"
                 style="fill:#42ceb2;fill-opacity:0.708333;fill-rule:nonzero;stroke:none"
                 id="path11516" /></g><g
               id="g11522"
               transform="translate(35.6167,99.3325)"
               style="fill:#42ceb2;fill-opacity:0.708333"><path
                 d="m 0,0 80.531,35.146 c 0.87,0.379 1.655,-0.661 1.046,-1.387 L 50.046,-3.828 c -0.183,-0.217 -0.457,-0.337 -0.741,-0.323 l -49,2.442 C -0.641,-1.662 -0.87,-0.38 0,0"
                 style="fill:#42ceb2;fill-opacity:0.708333;fill-rule:nonzero;stroke:none"
                 id="path11520" /></g></g></g></g></clipPath></defs><sodipodi:namedview
     id="namedview826"
     pagecolor="#505050"
     bordercolor="#eeeeee"
     borderopacity="1"
     inkscape:pageshadow="0"
     inkscape:pageopacity="0"
     inkscape:pagecheckerboard="0"
     showgrid="false"
     inkscape:zoom="0.94348587"
     inkscape:cx="50.875165"
     inkscape:cy="404.35158"
     inkscape:window-width="1920"
     inkscape:window-height="1017"
     inkscape:window-x="-8"
     inkscape:window-y="-8"
     inkscape:window-maximized="1"
     inkscape:current-layer="g830"
     units="px"
     inkscape:snap-perpendicular="false"
     inkscape:snap-tangential="false"
     width="375px" /><g
     id="g830"
     inkscape:groupmode="layer"
     inkscape:label="cartao_de_visita_9x5_RENAN_TORRES_2 (1)"
     transform="matrix(1.3333333,0,0,-1.3333333,0,203.33867)"><path
       d="M -1.3911192,-346.11505 H 281.29413 V 154.88877 H -1.3911192 Z"
       style="fill:#f9f9f9;fill-opacity:0.912879;fill-rule:nonzero;stroke:none;stroke-width:1.89741"
       id="path832"
       inkscape:export-filename="C:\Users\renst\Desktop\quizJS\simulaconc\assets\FundoRenan.png"
       inkscape:export-xdpi="667.10388"
       inkscape:export-ydpi="667.10388" /><g
       id="g11470"
       clip-path="url(#clipPath11390)"
       transform="matrix(1.7963129,0,0,1.9260223,52.623333,-319.90234)"
       inkscape:export-filename="C:\Users\renst\Desktop\quizJS\simulaconc\assets\FundoRenan.png"
       inkscape:export-xdpi="667.10388"
       inkscape:export-ydpi="667.10388"
       style="fill:#48c6b4;fill-opacity:0.25094339"><g
         inkscape:label="Clip"
         id="g11468"
         style="fill:#48c6b4;fill-opacity:0.25094339"><g
           id="g11466"
           transform="matrix(0.56710025,0,0,0.52198653,2.4353,78.183024)"
           style="fill:#48c6b4;fill-opacity:0.25094339"><g
             id="g11464"
             clip-path="url(#clipPath840)"
             style="fill:#48c6b4;fill-opacity:0.25094339"><g
               id="g11414"
               transform="translate(102.9961,89.6294)"
               style="fill:#48c6b4;fill-opacity:0.25094339"><path
                 d="M 0,0 C 0.581,0 1.078,0.204 1.492,0.612 1.906,1.02 2.113,1.507 2.113,2.076 2.113,2.719 1.912,3.204 1.511,3.531 1.109,3.858 0.562,4.022 -0.13,4.022 H -2.243 V 0 Z M -4.227,-6.822 V 5.116 c 0,0.21 0.05,0.364 0.149,0.464 0.099,0.098 0.253,0.148 0.464,0.148 h 3.262 C 1.155,5.728 2.283,5.456 3.031,4.912 3.778,4.368 4.152,3.528 4.152,2.391 4.152,1.637 3.961,1.001 3.578,0.482 3.194,-0.037 2.67,-0.426 2.002,-0.686 V -0.76 C 2.323,-0.871 2.607,-1.106 2.854,-1.464 3.102,-1.823 3.343,-2.305 3.578,-2.91 l 1.501,-3.763 c 0.05,-0.174 0.074,-0.272 0.074,-0.297 0,-0.21 -0.296,-0.315 -0.889,-0.315 H 3.911 c -0.21,0 -0.389,0.028 -0.537,0.083 -0.148,0.056 -0.247,0.133 -0.297,0.232 L 1.65,-3.337 c -0.248,0.618 -0.55,1.041 -0.908,1.27 -0.359,0.229 -0.89,0.343 -1.595,0.343 h -1.39 v -5.098 c 0,-0.309 -0.284,-0.463 -0.853,-0.463 h -0.277 c -0.569,0 -0.854,0.154 -0.854,0.463"
                 style="fill:#48c6b4;fill-opacity:0.25094339;fill-rule:nonzero;stroke:none"
                 id="path11412" /></g><g
               id="g11418"
               transform="translate(115.5898,87.998)"
               style="fill:#48c6b4;fill-opacity:0.25094339"><path
                 d="M 0,0 C 0,0.853 -0.164,1.504 -0.491,1.956 -0.819,2.407 -1.311,2.632 -1.965,2.632 -3.361,2.632 -4.141,1.755 -4.301,0 Z m -6.303,-0.834 c 0,1.668 0.377,2.925 1.131,3.772 0.754,0.847 1.835,1.27 3.244,1.27 1.298,0 2.268,-0.42 2.91,-1.261 0.643,-0.84 0.964,-2.032 0.964,-3.577 0,-0.124 -0.09,-0.297 -0.268,-0.519 -0.18,-0.223 -0.324,-0.334 -0.436,-0.334 h -5.543 c 0.074,-0.939 0.327,-1.622 0.76,-2.048 0.433,-0.427 1.063,-0.64 1.892,-0.64 0.468,0 0.879,0.056 1.232,0.167 0.353,0.111 0.654,0.232 0.908,0.361 0.253,0.13 0.399,0.195 0.436,0.195 0.135,0 0.293,-0.142 0.472,-0.426 0.179,-0.285 0.269,-0.495 0.269,-0.63 0,-0.198 -0.164,-0.393 -0.491,-0.584 -0.327,-0.192 -0.75,-0.349 -1.27,-0.473 -0.518,-0.124 -1.044,-0.186 -1.575,-0.186 -3.09,0 -4.635,1.638 -4.635,4.913"
                 style="fill:#48c6b4;fill-opacity:0.25094339;fill-rule:nonzero;stroke:none"
                 id="path11416" /></g><g
               id="g11422"
               transform="translate(119.7275,82.8076)"
               style="fill:#48c6b4;fill-opacity:0.25094339"><path
                 d="m 0,0 v 6.321 c 0,0.816 -0.037,1.409 -0.111,1.78 -0.075,0.371 -0.112,0.581 -0.112,0.63 0,0.173 0.155,0.297 0.463,0.371 0.31,0.074 0.594,0.111 0.854,0.111 0.184,0 0.317,-0.087 0.398,-0.259 C 1.572,8.78 1.634,8.595 1.677,8.397 1.721,8.2 1.748,8.063 1.761,7.99 2.131,8.422 2.57,8.765 3.077,9.019 3.583,9.271 4.097,9.398 4.615,9.398 5.555,9.398 6.28,9.136 6.793,8.61 7.306,8.085 7.562,7.347 7.562,6.396 V 0 c 0,-0.309 -0.284,-0.463 -0.852,-0.463 H 6.506 C 5.937,-0.463 5.653,-0.309 5.653,0 V 6.173 C 5.653,6.68 5.511,7.072 5.227,7.35 4.942,7.628 4.528,7.767 3.985,7.767 3.59,7.767 3.206,7.653 2.836,7.424 2.465,7.195 2.156,6.902 1.909,6.543 V 0 c 0,-0.309 -0.285,-0.463 -0.852,-0.463 H 0.853 C 0.284,-0.463 0,-0.309 0,0"
                 style="fill:#48c6b4;fill-opacity:0.25094339;fill-rule:nonzero;stroke:none"
                 id="path11420" /></g><g
               id="g11426"
               transform="translate(134.1396,84.1792)"
               style="fill:#48c6b4;fill-opacity:0.25094339"><path
                 d="m 0,0 c 0.408,0.223 0.785,0.525 1.131,0.909 v 1.853 c -1.198,0 -2.156,-0.114 -2.873,-0.343 -0.717,-0.229 -1.075,-0.707 -1.075,-1.436 0,-0.421 0.121,-0.745 0.361,-0.974 0.241,-0.228 0.584,-0.342 1.029,-0.342 0.544,0 1.02,0.111 1.427,0.333 m -3.967,-1.214 c -0.544,0.476 -0.815,1.159 -0.815,2.048 0,1.249 0.519,2.123 1.557,2.624 1.037,0.5 2.49,0.756 4.356,0.769 V 5.024 C 1.131,5.456 0.983,5.802 0.687,6.062 0.39,6.321 -0.086,6.451 -0.741,6.451 -1.248,6.451 -1.689,6.393 -2.066,6.275 -2.443,6.157 -2.765,6.034 -3.03,5.904 -3.296,5.774 -3.447,5.709 -3.484,5.709 c -0.137,0 -0.294,0.146 -0.473,0.437 -0.18,0.29 -0.269,0.509 -0.269,0.657 0,0.173 0.164,0.355 0.492,0.547 0.327,0.192 0.759,0.352 1.296,0.482 0.539,0.13 1.11,0.195 1.715,0.195 1.224,0 2.154,-0.263 2.79,-0.788 C 2.704,6.713 3.021,5.988 3.021,5.061 V 1.094 c 0,-0.828 0.039,-1.427 0.112,-1.798 0.074,-0.371 0.111,-0.581 0.111,-0.63 0,-0.174 -0.151,-0.297 -0.454,-0.371 C 2.487,-1.779 2.206,-1.816 1.947,-1.816 1.749,-1.816 1.61,-1.724 1.53,-1.539 1.449,-1.353 1.388,-1.155 1.345,-0.945 1.301,-0.735 1.272,-0.593 1.261,-0.519 0.928,-0.915 0.51,-1.248 0.01,-1.52 c -0.501,-0.272 -1.084,-0.408 -1.752,-0.408 -0.94,0 -1.681,0.238 -2.225,0.714"
                 style="fill:#48c6b4;fill-opacity:0.25094339;fill-rule:nonzero;stroke:none"
                 id="path11424" /></g><g
               id="g11430"
               transform="translate(139.9111,82.8076)"
               style="fill:#48c6b4;fill-opacity:0.25094339"><path
                 d="m 0,0 v 6.321 c 0,0.816 -0.037,1.409 -0.111,1.78 -0.076,0.371 -0.112,0.581 -0.112,0.63 0,0.173 0.155,0.297 0.463,0.371 0.31,0.074 0.594,0.111 0.854,0.111 0.184,0 0.317,-0.087 0.398,-0.259 C 1.572,8.78 1.634,8.595 1.677,8.397 1.721,8.2 1.748,8.063 1.761,7.99 2.131,8.422 2.57,8.765 3.077,9.019 3.583,9.271 4.097,9.398 4.615,9.398 5.555,9.398 6.28,9.136 6.793,8.61 7.306,8.085 7.562,7.347 7.562,6.396 V 0 c 0,-0.309 -0.284,-0.463 -0.852,-0.463 H 6.506 C 5.937,-0.463 5.653,-0.309 5.653,0 V 6.173 C 5.653,6.68 5.511,7.072 5.227,7.35 4.942,7.628 4.528,7.767 3.985,7.767 3.59,7.767 3.206,7.653 2.836,7.424 2.465,7.195 2.156,6.902 1.909,6.543 V 0 c 0,-0.309 -0.285,-0.463 -0.852,-0.463 H 0.853 C 0.284,-0.463 0,-0.309 0,0"
                 style="fill:#48c6b4;fill-opacity:0.25094339;fill-rule:nonzero;stroke:none"
                 id="path11428" /></g><g
               id="g11434"
               transform="translate(157.335,82.8076)"
               style="fill:#48c6b4;fill-opacity:0.25094339"><path
                 d="m 0,0 v 10.844 h -3.393 c -0.148,0 -0.253,0.052 -0.314,0.158 -0.063,0.104 -0.093,0.275 -0.093,0.51 v 0.37 c 0,0.235 0.03,0.405 0.093,0.51 0.061,0.105 0.166,0.158 0.314,0.158 h 8.732 c 0.148,0 0.253,-0.053 0.314,-0.158 0.063,-0.105 0.093,-0.275 0.093,-0.51 v -0.37 c 0,-0.235 -0.03,-0.406 -0.093,-0.51 C 5.592,10.896 5.487,10.844 5.339,10.844 H 1.983 V 0 c 0,-0.309 -0.284,-0.463 -0.852,-0.463 H 0.854 C 0.284,-0.463 0,-0.309 0,0"
                 style="fill:#48c6b4;fill-opacity:0.25094339;fill-rule:nonzero;stroke:none"
                 id="path11432" /></g><g
               id="g11438"
               transform="translate(169.1064,84.6616)"
               style="fill:#48c6b4;fill-opacity:0.25094339"><path
                 d="M 0,0 C 0.389,0.556 0.584,1.409 0.584,2.558 0.584,3.707 0.389,4.563 0,5.125 -0.39,5.687 -0.992,5.969 -1.808,5.969 -2.611,5.969 -3.204,5.687 -3.587,5.125 -3.971,4.563 -4.162,3.707 -4.162,2.558 -4.162,1.409 -3.974,0.556 -3.597,0 -3.22,-0.556 -2.623,-0.834 -1.808,-0.834 -0.992,-0.834 -0.39,-0.556 0,0 m -5.015,-1.14 c -0.741,0.846 -1.112,2.073 -1.112,3.68 0,1.606 0.377,2.842 1.131,3.707 0.754,0.865 1.829,1.297 3.225,1.297 1.397,0 2.462,-0.429 3.198,-1.288 C 2.162,5.397 2.53,4.158 2.53,2.54 c 0,-1.607 -0.365,-2.834 -1.093,-3.68 -0.73,-0.847 -1.799,-1.27 -3.208,-1.27 -1.421,0 -2.502,0.423 -3.244,1.27"
                 style="fill:#48c6b4;fill-opacity:0.25094339;fill-rule:nonzero;stroke:none"
                 id="path11436" /></g><g
               id="g11442"
               transform="translate(173.9531,82.8076)"
               style="fill:#48c6b4;fill-opacity:0.25094339"><path
                 d="m 0,0 v 6.321 c 0,0.816 -0.037,1.409 -0.111,1.78 -0.075,0.371 -0.112,0.581 -0.112,0.63 0,0.173 0.155,0.297 0.463,0.371 0.309,0.074 0.594,0.111 0.853,0.111 0.185,0 0.318,-0.087 0.399,-0.259 C 1.572,8.78 1.634,8.595 1.677,8.397 1.721,8.2 1.748,8.063 1.761,7.99 2.391,8.929 3.096,9.398 3.874,9.398 4.232,9.398 4.501,9.318 4.68,9.157 4.859,8.997 4.949,8.805 4.949,8.583 4.949,8.36 4.905,8.113 4.819,7.841 4.732,7.569 4.634,7.434 4.521,7.434 4.448,7.434 4.321,7.464 4.143,7.526 3.963,7.588 3.763,7.619 3.54,7.619 3.157,7.619 2.82,7.492 2.53,7.239 2.239,6.985 2.026,6.753 1.891,6.543 V 0 c 0,-0.309 -0.279,-0.463 -0.835,-0.463 H 0.853 C 0.283,-0.463 0,-0.309 0,0"
                 style="fill:#48c6b4;fill-opacity:0.25094339;fill-rule:nonzero;stroke:none"
                 id="path11440" /></g><g
               id="g11446"
               transform="translate(180.834,82.8076)"
               style="fill:#48c6b4;fill-opacity:0.25094339"><path
                 d="m 0,0 v 6.321 c 0,0.816 -0.037,1.409 -0.111,1.78 -0.075,0.371 -0.112,0.581 -0.112,0.63 0,0.173 0.155,0.297 0.463,0.371 0.309,0.074 0.594,0.111 0.853,0.111 0.185,0 0.318,-0.087 0.399,-0.259 C 1.572,8.78 1.634,8.595 1.677,8.397 1.721,8.2 1.748,8.063 1.761,7.99 2.391,8.929 3.096,9.398 3.874,9.398 4.232,9.398 4.501,9.318 4.68,9.157 4.859,8.997 4.949,8.805 4.949,8.583 4.949,8.36 4.905,8.113 4.819,7.841 4.732,7.569 4.634,7.434 4.522,7.434 4.448,7.434 4.321,7.464 4.143,7.526 3.963,7.588 3.763,7.619 3.54,7.619 3.157,7.619 2.82,7.492 2.53,7.239 2.239,6.985 2.026,6.753 1.891,6.543 V 0 c 0,-0.309 -0.279,-0.463 -0.835,-0.463 H 0.853 C 0.283,-0.463 0,-0.309 0,0"
                 style="fill:#48c6b4;fill-opacity:0.25094339;fill-rule:nonzero;stroke:none"
                 id="path11444" /></g><g
               id="g11450"
               transform="translate(193.2373,87.998)"
               style="fill:#48c6b4;fill-opacity:0.25094339"><path
                 d="M 0,0 C 0,0.853 -0.164,1.504 -0.491,1.956 -0.819,2.407 -1.311,2.632 -1.965,2.632 -3.361,2.632 -4.141,1.755 -4.301,0 Z m -6.303,-0.834 c 0,1.668 0.377,2.925 1.131,3.772 0.754,0.847 1.835,1.27 3.244,1.27 1.298,0 2.268,-0.42 2.91,-1.261 0.643,-0.84 0.964,-2.032 0.964,-3.577 0,-0.124 -0.09,-0.297 -0.268,-0.519 -0.18,-0.223 -0.324,-0.334 -0.436,-0.334 h -5.543 c 0.074,-0.939 0.327,-1.622 0.76,-2.048 0.433,-0.427 1.063,-0.64 1.892,-0.64 0.468,0 0.879,0.056 1.232,0.167 0.353,0.111 0.654,0.232 0.908,0.361 0.253,0.13 0.399,0.195 0.436,0.195 0.135,0 0.293,-0.142 0.472,-0.426 0.179,-0.285 0.269,-0.495 0.269,-0.63 0,-0.198 -0.164,-0.393 -0.491,-0.584 -0.327,-0.192 -0.75,-0.349 -1.27,-0.473 -0.518,-0.124 -1.044,-0.186 -1.575,-0.186 -3.09,0 -4.635,1.638 -4.635,4.913"
                 style="fill:#48c6b4;fill-opacity:0.25094339;fill-rule:nonzero;stroke:none"
                 id="path11448" /></g><g
               id="g11454"
               transform="translate(198.1875,82.3999)"
               style="fill:#48c6b4;fill-opacity:0.25094339"><path
                 d="m 0,0 c -0.457,0.124 -0.825,0.278 -1.104,0.463 -0.277,0.186 -0.417,0.371 -0.417,0.557 0,0.16 0.09,0.379 0.27,0.658 0.179,0.278 0.336,0.417 0.473,0.417 0.024,0 0.148,-0.065 0.37,-0.195 C -0.186,1.771 0.067,1.656 0.353,1.557 0.637,1.458 0.957,1.409 1.316,1.409 c 1.076,0 1.613,0.432 1.613,1.298 0,0.382 -0.136,0.682 -0.408,0.898 -0.272,0.216 -0.729,0.43 -1.372,0.64 -0.865,0.259 -1.489,0.603 -1.872,1.029 -0.383,0.426 -0.575,1.01 -0.575,1.751 0,0.829 0.29,1.499 0.871,2.012 0.581,0.512 1.341,0.769 2.281,0.769 0.642,0 1.229,-0.083 1.76,-0.25 C 4.146,9.389 4.412,9.182 4.412,8.935 4.412,8.75 4.334,8.515 4.18,8.23 4.025,7.946 3.88,7.804 3.744,7.804 3.695,7.816 3.528,7.894 3.244,8.036 2.959,8.178 2.576,8.249 2.095,8.249 1.662,8.249 1.31,8.159 1.038,7.98 0.766,7.801 0.63,7.551 0.63,7.229 0.63,6.846 0.763,6.541 1.028,6.312 1.294,6.083 1.705,5.87 2.262,5.672 2.916,5.45 3.426,5.221 3.791,4.986 4.155,4.751 4.421,4.461 4.588,4.115 4.755,3.769 4.838,3.33 4.838,2.799 4.838,2.23 4.692,1.718 4.402,1.261 4.112,0.803 3.71,0.448 3.197,0.195 2.685,-0.059 2.106,-0.186 1.464,-0.186 0.945,-0.186 0.457,-0.124 0,0"
                 style="fill:#48c6b4;fill-opacity:0.25094339;fill-rule:nonzero;stroke:none"
                 id="path11452" /></g><g
               id="g11458"
               transform="translate(110.936,129.5703)"
               style="fill:#48c6b4;fill-opacity:0.25094339"><path
                 d="m 0,0 -26.283,-31.58 c -0.213,-0.256 -0.534,-0.397 -0.867,-0.378 l -41.027,2.204 c -1.111,0.06 -1.385,1.575 -0.365,2.021 L -1.233,1.642 C -0.213,2.087 0.711,0.855 0,0 m 6.169,-101.192 -28.71,65.784 c -0.159,0.366 -0.099,0.79 0.157,1.096 L 6.794,0.749 C 7.427,1.51 8.665,1.059 8.66,0.069 L 8.191,-100.774 c -0.005,-1.142 -1.566,-1.463 -2.022,-0.418 m -6.028,-3.096 -74.258,68.231 c -0.729,0.67 -0.218,1.884 0.77,1.831 l 45.549,-2.448 c 0.399,-0.021 0.751,-0.266 0.91,-0.632 l 28.71,-65.783 c 0.456,-1.046 -0.841,-1.971 -1.681,-1.199 m 10.357,-10.34 0.571,122.61 c 0.004,0.763 -0.778,1.277 -1.477,0.972 l -90.857,-39.652 c -0.698,-0.305 -0.853,-1.228 -0.292,-1.744 l 90.286,-82.957 c 0.675,-0.621 1.765,-0.145 1.769,0.771"
                 style="fill:#48c6b4;fill-opacity:0.25094339;fill-rule:nonzero;stroke:none"
                 id="path11456" /></g><g
               id="g11462"
               transform="translate(35.6167,99.3325)"
               style="fill:#48c6b4;fill-opacity:0.25094339"><path
                 d="m 0,0 80.531,35.146 c 0.87,0.379 1.655,-0.661 1.046,-1.387 L 50.046,-3.828 c -0.183,-0.217 -0.457,-0.337 -0.741,-0.323 l -49,2.442 C -0.641,-1.662 -0.87,-0.38 0,0"
                 style="fill:#48c6b4;fill-opacity:0.25094339;fill-rule:nonzero;stroke:none"
                 id="path11460" /></g></g></g></g></g><rect
       style="fill:#f9f9f9;fill-opacity:1;fill-rule:nonzero;stroke-width:0.851452"
       id="rect29693"
       width="98.680176"
       height="93.372482"
       x="181.24388"
       y="41.419289"
       transform="scale(1,-1)" /><rect
       style="fill:#f9f9f9;fill-opacity:1;fill-rule:nonzero;stroke-width:0.184973"
       id="rect29937"
       width="22.9153"
       height="18.976477"
       x="154.00833"
       y="70.300369"
       transform="scale(1,-1)"
       inkscape:export-filename="C:\Users\renst\Desktop\quizJS\simulaconc\assets\FundoRenan.png"
       inkscape:export-xdpi="667.10388"
       inkscape:export-ydpi="667.10388" /></g></svg>
